# xmcd
#
# Track frame offsets:
# 150
# 21718
# 53405
# 85080
# 110937
# 134290
# 157832
# 181752
# 210776
# 236196
# 260634
# 283556
# 306179
# 331437
#
# Disc length: 4734 seconds
#
#
# Revision: 0
# Processed by: cddbd v1.5.2PL0 Copyright (c) Steve Scherf et al.
# Submitted via: FreeRIP 2.945 
#
DISCID=c1127c0e
DTITLE=Herriot-J1972 - Great-Small11
DYEAR=1972
DGENRE=Jungle
TTITLE0=GS 1101
TTITLE1=GS 1102
TTITLE2=GS 1103
TTITLE3=GS 1104
TTITLE4=GS 1105
TTITLE5=GS 1106
TTITLE6=GS 1107
TTITLE7=GS 1108
TTITLE8=GS 1109
TTITLE9=GS 1110
TTITLE10=GS 1111
TTITLE11=GS 1112
TTITLE12=GS 1113
TTITLE13=GS 1114
EXTD=All Creatures Great and Small 12 CDs\nby James Harriot read by ChristopherTimothy\nAudio Renassance - Jungle - Country
EXTT0=
EXTT1=
EXTT2=
EXTT3=
EXTT4=
EXTT5=
EXTT6=
EXTT7=
EXTT8=
EXTT9=
EXTT10=
EXTT11=
EXTT12=
EXTT13=
PLAYORDER=
